<?xml version="1.0" encoding="UTF-8" standalone="no" ?>
<!DOCTYPE svg PUBLIC "-//W3C//DTD SVG 1.1//EN" "http://www.w3.org/Graphics/SVG/1.1/DTD/svg11.dtd">
<svg xmlns="http://www.w3.org/2000/svg" xmlns:xlink="http://www.w3.org/1999/xlink" version="1.1" width="500" height="500" viewBox="0 0 500 500" xml:space="preserve">
<desc>Created with Fabric.js 4.6.0</desc>
<defs>
</defs>
<g transform="matrix(4.69 0 0 4.93 270.18 241.1)" id="tInhwN5O1zW5407vaCXtT"  >
<g style="" vector-effect="non-scaling-stroke"   >
		<g transform="matrix(1 0 0 1 0 -0.05)" id="M0qMCK5O6gnyKU6EoG3-r"  >
<path style="stroke: none; stroke-width: 1; stroke-dasharray: none; stroke-linecap: butt; stroke-dashoffset: 0; stroke-linejoin: miter; stroke-miterlimit: 4; fill: rgb(179,181,179); fill-rule: nonzero; opacity: 1;" vector-effect="non-scaling-stroke"  transform=" translate(-40, -39.95)" d="M 66 0 L 14 0 C 12.2 0 10.8 1.5 10.8 3.3 L 10.8 76.6 C 10.8 78.39999999999999 12.3 79.89999999999999 14 79.89999999999999 L 66 79.89999999999999 C 67.8 79.89999999999999 69.2 78.39999999999999 69.2 76.6 L 69.2 3.3 C 69.2 1.5 67.8 0 66 0 z" stroke-linecap="round" />
</g>
		<g transform="matrix(1 0 0 1 0 36)" id="kK4VZpgoMJJ10A5jqNUCV"  >
<path style="stroke: none; stroke-width: 1; stroke-dasharray: none; stroke-linecap: butt; stroke-dashoffset: 0; stroke-linejoin: miter; stroke-miterlimit: 4; fill: rgb(255,255,255); fill-rule: nonzero; opacity: 1;" vector-effect="non-scaling-stroke"  transform=" translate(-40, -76)" d="M 42.4 76 C 42.4 77.3 41.3 78.4 40 78.4 C 38.7 78.4 37.6 77.30000000000001 37.6 76 C 37.6 74.69999999999999 38.7 73.6 40 73.6 C 41.3 73.6 42.4 74.7 42.4 76 z" stroke-linecap="round" />
</g>
		<g transform="matrix(1 0 0 1 0 -37.3)" id="E-lTbzcM_PdsJxjpbUq1k"  >
<path style="stroke: none; stroke-width: 1; stroke-dasharray: none; stroke-linecap: butt; stroke-dashoffset: 0; stroke-linejoin: miter; stroke-miterlimit: 4; fill: rgb(255,255,255); fill-rule: nonzero; opacity: 1;" vector-effect="non-scaling-stroke"  transform=" translate(-40, -2.7)" d="M 36.5 2.7 C 36.5 2.2 37 1.8000000000000003 37.6 1.8000000000000003 L 42.4 1.8000000000000003 C 43 1.8000000000000003 43.5 2.2 43.5 2.7 C 43.5 3.2 43 3.6 42.4 3.6 L 37.6 3.6 C 37 3.6 36.5 3.2 36.5 2.7 z" stroke-linecap="round" />
</g>
		<g transform="matrix(1 0 0 1 0 -1.2)" id="Y6v8WJ-cSDv1MvHGWG6ut"  >
<path style="stroke: none; stroke-width: 1; stroke-dasharray: none; stroke-linecap: butt; stroke-dashoffset: 0; stroke-linejoin: miter; stroke-miterlimit: 4; fill: rgb(255,255,255); fill-rule: nonzero; opacity: 1;" vector-effect="non-scaling-stroke"  transform=" translate(-40, -38.8)" d="M 64.4 5.7 L 64.4 71.9 L 15.6 71.9 L 15.6 5.7 L 64.4 5.7 z" stroke-linecap="round" />
</g>
</g>
</g>
<g transform="matrix(1.05 0 0 1.05 270.18 193.03)" id="qfRPngapTh1vL5BTQothz"  >
<path style="stroke: none; stroke-width: 1; stroke-dasharray: none; stroke-linecap: butt; stroke-dashoffset: 0; stroke-linejoin: miter; stroke-miterlimit: 4; fill: rgb(221,8,8); fill-rule: nonzero; opacity: 1;" vector-effect="non-scaling-stroke"  transform=" translate(-40, -40)" d="M 60 4.346 C 71 4.346 80 13.973 80 25.738 C 80 58.45 40 74.762 40 75.65299999999999 L 40 75.65299999999999 C 40 74.763 0 58.54 0 25.738 C 0 13.884 9 4.346 20 4.346 C 31.1 4.346 40 10.835 40 22.689 C 40 10.835 48.9 4.346 60 4.346 z" stroke-linecap="round" />
</g>
<g transform="matrix(1 0 0 1 201.78 273.58)" id="-WtUsrkh-84Ttc-r_qMLg"  >
<path style="stroke: rgb(0,0,0); stroke-width: 1; stroke-dasharray: none; stroke-linecap: round; stroke-dashoffset: 0; stroke-linejoin: round; stroke-miterlimit: 10; fill: none; fill-rule: nonzero; opacity: 1;" vector-effect="non-scaling-stroke"  transform=" translate(-201.78, -273.58)" d="M 201.77941543026722 273.5772053628573 L 201.78141543026723 273.5772053628573" stroke-linecap="round" />
</g>
</svg>